<svg width="24" height="24" viewBox="-2 -2 24 24" fill="none" xmlns="http://www.w3.org/2000/svg">
<g clip-path="url(#clip0_104_1653)">
<rect width="20" height="20" rx="6" fill=""/>
<path fill-rule="evenodd" clip-rule="evenodd" d="M4.80039 9.38599L4.55779 9.62858C4.21665 9.96973 4.21601 10.5226 4.55635 10.8646L7.58358 13.9059C7.92506 14.249 8.48019 14.2497 8.82246 13.9074L15.4419 7.28796C15.7836 6.94625 15.7836 6.39224 15.4419 6.05053L15.1994 5.80804C14.858 5.46661 14.3045 5.46629 13.9627 5.80731L8.20416 11.5523L6.03782 9.38599C5.69611 9.04428 5.14209 9.04428 4.80039 9.38599ZM5.36249 9.89334C5.35102 9.89911 5.34027 9.90676 5.33072 9.91632L5.08813 10.1589C5.03939 10.2076 5.0393 10.2866 5.08792 10.3355L8.11515 13.3769C8.13995 13.4018 8.17264 13.414 8.20521 13.4137C8.17272 13.414 8.14012 13.4017 8.11538 13.3769L5.08815 10.3355C5.03953 10.2866 5.03962 10.2076 5.08835 10.1589L5.33095 9.91632C5.34046 9.9068 5.35112 9.89915 5.36249 9.89334ZM14.5794 6.30176C14.5479 6.30209 14.5165 6.31426 14.4924 6.33827L8.29192 12.5242C8.26756 12.5485 8.23566 12.5607 8.20375 12.5607C8.23574 12.5607 8.26773 12.5485 8.29215 12.5242L14.4926 6.33827C14.5166 6.31432 14.5479 6.30215 14.5794 6.30176Z" fill="white"/>
</g>
<defs>
<clipPath id="clip0_104_1653">
<rect width="20" height="20" rx="4" fill="white"/>
</clipPath>
</defs>
</svg>
