<svg width="24" height="24" viewBox="-4 -4 24 24" fill="none" xmlns="http://www.w3.org/2000/svg">
<path fill-rule="evenodd" clip-rule="evenodd" d="M5.5938 3.01645C7.39085 0.94954 10.4904 0.7601 12.5167 2.59344C14.5433 4.42653 14.7288 7.58844 12.9318 9.65532L12.9317 9.65539C11.235 11.6062 8.3787 11.8842 6.35964 10.368L5.559 11.2885L5.87388 11.5739L3.18814 14.6667L1.83337 13.4298L4.51482 10.3422L4.88478 10.6775L5.68491 9.75756C3.96773 7.89363 3.89713 4.96772 5.59378 3.01647L5.5938 3.01645ZM11.9183 3.2817C10.2646 1.78547 7.73507 1.9401 6.26854 3.62687L6.26852 3.62689C4.80156 5.31396 4.95336 7.89382 6.60708 9.39009C8.26059 10.886 10.7899 10.7317 12.2571 9.04486C13.7236 7.35802 13.5721 4.77763 11.9184 3.28174L11.9183 3.2817Z" fill="#494646"/>
</svg>
